<?xml version="1.0" standalone="no"?>
<!DOCTYPE svg PUBLIC "-//W3C//DTD SVG 20010904//EN"
 "http://www.w3.org/TR/2001/REC-SVG-20010904/DTD/svg10.dtd">
<svg version="1.0" xmlns="http://www.w3.org/2000/svg"
 width="1024.000000pt" height="1024.000000pt" viewBox="0 0 1024.000000 1024.000000"
 preserveAspectRatio="xMidYMid meet">

<g transform="translate(0.000000,1024.000000) scale(0.100000,-0.100000)"
fill="#000000" stroke="none">
<path d="M4886 9089 c-444 -28 -897 -183 -1251 -427 -311 -215 -600 -515 -794
-823 -371 -593 -514 -1292 -390 -1916 88 -445 300 -870 625 -1253 358 -424
865 -761 1345 -896 477 -133 910 -126 1364 22 816 268 1546 978 1820 1774 94
275 134 490 142 770 12 437 -74 821 -277 1235 -89 183 -156 292 -277 453 -409
545 -1056 928 -1750 1036 -94 15 -362 37 -408 34 -11 0 -78 -5 -149 -9z m1143
-596 c194 -132 488 -350 639 -476 73 -61 83 -72 78 -95 -8 -40 -64 -518 -78
-671 l-13 -134 -350 -113 -350 -113 -370 247 -370 247 -3 317 -2 317 62 43
c115 79 693 467 697 467 3 1 30 -16 60 -36z m-1525 -226 c209 -140 387 -261
394 -269 9 -12 12 -85 10 -314 l-3 -299 -373 -249 -374 -249 -316 102 c-174
56 -331 108 -348 116 -31 13 -31 14 -43 122 -30 272 -62 585 -68 653 l-6 76
57 51 c152 139 647 513 679 513 5 0 181 -114 391 -253z m-1043 -1433 c41 -14
200 -68 354 -120 153 -52 281 -96 282 -98 7 -6 243 -839 243 -855 0 -10 -15
-35 -33 -57 -49 -58 -371 -475 -391 -506 -13 -20 -27 -28 -47 -28 -62 0 -726
159 -831 199 -21 8 -34 29 -68 118 -108 275 -151 420 -194 648 l-24 130 54 62
c46 52 266 267 494 481 30 28 62 52 71 52 8 0 49 -12 90 -26z m3417 -117 c82
-75 229 -219 326 -318 l177 -182 -26 -134 c-41 -213 -130 -500 -213 -684 l-30
-65 -138 -42 c-77 -23 -204 -58 -284 -77 -136 -32 -456 -95 -485 -95 -7 0 -32
26 -56 58 -23 31 -127 166 -231 299 l-188 243 66 227 c36 126 95 327 129 448
35 121 67 221 72 223 56 24 702 239 715 238 9 0 84 -63 166 -139z m-2033
-1123 c66 -8 238 -17 382 -21 l262 -6 198 -265 c109 -146 210 -282 225 -303
l26 -36 -85 -154 c-46 -85 -141 -261 -210 -391 -108 -206 -128 -237 -151 -242
-97 -19 -255 -30 -432 -30 -189 0 -261 5 -456 35 l-71 11 -63 122 c-72 140
-98 188 -245 460 -71 131 -105 204 -99 212 5 6 117 152 249 324 l239 312 56
-7 c30 -3 109 -13 175 -21z"/>
<path d="M8425 5377 c-525 -273 -898 -576 -1302 -1057 -310 -369 -553 -748
-799 -1249 -194 -394 -314 -712 -425 -1129 -17 -64 -33 -122 -36 -129 -4 -11
78 -13 430 -13 406 0 436 1 441 18 3 9 21 87 40 172 191 842 429 1452 824
2115 195 327 416 629 824 1127 98 120 178 220 178 223 0 11 -20 2 -175 -78z"/>
<path d="M1700 5305 c0 -3 30 -38 66 -77 86 -94 326 -381 441 -528 422 -541
787 -1177 1028 -1794 111 -285 252 -737 316 -1018 l21 -88 450 0 c423 0 449 1
444 18 -3 9 -19 69 -36 132 -56 210 -158 500 -256 730 -347 816 -1013 1673
-1707 2193 -180 135 -363 247 -574 349 -179 87 -193 93 -193 83z"/>
<path d="M6035 3600 c-348 -197 -608 -478 -780 -842 -52 -110 -119 -302 -136
-387 -6 -34 -14 -59 -17 -56 -3 3 -16 46 -29 96 -118 458 -436 874 -810 1063
-58 29 -62 26 -34 -20 157 -257 284 -563 355 -857 59 -239 82 -417 87 -657 2
-63 5 -121 7 -127 3 -10 107 -13 472 -13 l467 0 7 158 c21 487 127 912 329
1321 68 137 193 357 208 367 11 6 12 24 2 23 -5 0 -62 -31 -128 -69z"/>
</g>
</svg>
